<svg width="720" height="820" viewBox="0 0 720 820" fill="none" xmlns="http://www.w3.org/2000/svg">
  <rect width="720" height="820" rx="80" fill="url(#bg)"/>
  <circle cx="360" cy="250" r="116" fill="#F8FAFC"/>
  <path d="M165 680C183 533 254 450 360 450C466 450 537 533 555 680H165Z" fill="#F8FAFC"/>
  <path d="M240 265C258 170 317 132 396 145C469 157 504 211 493 290C449 256 405 233 346 233C302 233 270 244 240 265Z" fill="#111827"/>
  <path d="M160 620C195 529 261 484 360 484C459 484 525 529 560 620" stroke="#111827" stroke-width="24" stroke-linecap="round" opacity="0.14"/>
  <circle cx="185" cy="142" r="48" fill="#22D3EE" opacity="0.65"/>
  <circle cx="580" cy="220" r="70" fill="#A78BFA" opacity="0.55"/>
  <circle cx="118" cy="575" r="58" fill="#34D399" opacity="0.55"/>
  <path d="M88 344C160 308 227 312 289 356" stroke="white" stroke-width="16" stroke-linecap="round" opacity="0.42"/>
  <path d="M448 104C512 102 561 126 594 176" stroke="white" stroke-width="16" stroke-linecap="round" opacity="0.42"/>
  <defs>
    <linearGradient id="bg" x1="82" y1="56" x2="646" y2="742" gradientUnits="userSpaceOnUse">
      <stop stop-color="#312E81"/>
      <stop offset="0.45" stop-color="#0F172A"/>
      <stop offset="1" stop-color="#064E3B"/>
    </linearGradient>
  </defs>
</svg>
